name Walk8.mot
datacolumns 19
datarows 27
range 1.49500000 1.62500000
endheader

                time	   L_ground_force_vx	   L_ground_force_vy	   L_ground_force_vz	   L_ground_force_px	   L_ground_force_py	   L_ground_force_pz	   R_ground_force_vx	   R_ground_force_vy	   R_ground_force_vz	   R_ground_force_px	   R_ground_force_py	   R_ground_force_pz	   L_ground_torque_x	   L_ground_torque_y	   L_ground_torque_z	   R_ground_torque_x	   R_ground_torque_y	   R_ground_torque_z	
          1.49500000	          0.01811341	          0.04130385	         -0.00561792	         -0.00005061	          0.00000000	         -0.00001800	        -26.78667787	        407.97481310	        -31.92747424	          0.57430688	          0.00000000	          0.08534667	          0.00000000	          0.00024493	          0.00000000	          0.00000000	          2.44409416	          0.00000000	
          1.50000000	          0.01035554	          0.02187349	         -0.00378790	         -0.00003826	          0.00000000	         -0.00001401	        -26.32065716	        402.36109903	        -30.60039636	          0.57873882	          0.00000000	          0.08528392	          0.00000000	          0.00015661	          0.00000000	          0.00000000	          2.30624328	          0.00000000	
          1.50500000	          0.00456156	          0.00768324	         -0.00231477	         -0.00002731	          0.00000000	         -0.00001034	        -25.82309091	        398.45116809	        -29.33202673	          0.58277409	          0.00000000	          0.08518558	          0.00000000	          0.00008759	          0.00000000	          0.00000000	          2.17083414	          0.00000000	
          1.51000000	          0.00048524	         -0.00202434	         -0.00118701	         -0.00001813	          0.00000000	         -0.00000717	        -25.26200928	        396.13748007	        -28.14479419	          0.58638299	          0.00000000	          0.08505769	          0.00000000	          0.00003640	          0.00000000	          0.00000000	          2.03091880	          0.00000000	
          1.51500000	         -0.00216721	         -0.00808952	         -0.00036992	         -0.00001081	          0.00000000	         -0.00000458	        -24.61020234	        395.28192664	        -27.05809262	          0.58955354	          0.00000000	          0.08490472	          0.00000000	          0.00000069	          0.00000000	          0.00000000	          1.87996445	          0.00000000	
          1.52000000	         -0.00369677	         -0.01133922	          0.00018332	         -0.00000526	          0.00000000	         -0.00000255	        -23.84622987	        395.72233678	        -26.08694133	          0.59228835	          0.00000000	          0.08472880	          0.00000000	         -0.00002226	          0.00000000	          0.00000000	          1.71209629	          0.00000000	
          1.52500000	         -0.00438528	         -0.01252640	          0.00052360	         -0.00000128	          0.00000000	         -0.00000104	        -22.95547777	        397.28522726	        -25.23993038	          0.59460396	          0.00000000	          0.08453292	          0.00000000	         -0.00003522	          0.00000000	          0.00000000	          1.52325418	          0.00000000	
          1.53000000	         -0.00447998	         -0.01229702	          0.00070041	          0.00000137	          0.00000000	          0.00000000	        -21.93124948	        399.79941844	        -24.51554472	          0.59652726	          0.00000000	          0.08432110	          0.00000000	         -0.00004074	          0.00000000	          0.00000000	          1.31190613	          0.00000000	
          1.53500000	         -0.00418640	         -0.01117738	          0.00075840	          0.00000296	          0.00000000	          0.00000067	        -20.77362196	        403.10662629	        -23.90018827	          0.59809229	          0.00000000	          0.08409764	          0.00000000	         -0.00004106	          0.00000000	          0.00000000	          1.07875816	          0.00000000	
          1.54000000	         -0.00366704	         -0.00957539	          0.00073560	          0.00000375	          0.00000000	          0.00000105	        -19.48447977	        407.06728672	        -23.37400886	          0.59933888	          0.00000000	          0.08386665	          0.00000000	         -0.00003802	          0.00000000	          0.00000000	          0.82510237	          0.00000000	
          1.54500000	         -0.00304397	         -0.00779076	          0.00066281	          0.00000395	          0.00000000	          0.00000121	        -18.06318790	        411.56578946	        -22.92222595	          0.60031072	          0.00000000	          0.08363278	          0.00000000	         -0.00003306	          0.00000000	          0.00000000	          0.55094229	          0.00000000	
          1.55000000	         -0.00240366	         -0.00603016	          0.00056371	          0.00000377	          0.00000000	          0.00000121	        -16.50787925	        416.51350140	        -22.53852964	          0.60105279	          0.00000000	          0.08340153	          0.00000000	         -0.00002727	          0.00000000	          0.00000000	          0.25531902	          0.00000000	
          1.55500000	         -0.00180294	         -0.00442420	          0.00045557	          0.00000336	          0.00000000	          0.00000112	        -14.81833852	        421.84907737	        -22.22138438	          0.60160739	          0.00000000	          0.08317714	          0.00000000	         -0.00002140	          0.00000000	          0.00000000	         -0.06257840	          0.00000000	
          1.56000000	         -0.00127512	         -0.00304444	          0.00035020	          0.00000283	          0.00000000	          0.00000097	        -12.99851624	        427.53491469	        -21.96961954	          0.60201329	          0.00000000	          0.08296304	          0.00000000	         -0.00001594	          0.00000000	          0.00000000	         -0.40321187	          0.00000000	
          1.56500000	         -0.00083580	         -0.00191884	          0.00025493	          0.00000227	          0.00000000	          0.00000080	        -11.05773451	        433.54716831	        -21.78036839	          0.60230759	          0.00000000	          0.08276042	          0.00000000	         -0.00001118	          0.00000000	          0.00000000	         -0.76633525	          0.00000000	
          1.57000000	         -0.00048796	         -0.00104526	          0.00017367	          0.00000172	          0.00000000	          0.00000063	         -9.00959173	        439.86857402	        -21.64870906	          0.60252396	          0.00000000	          0.08256887	          0.00000000	         -0.00000724	          0.00000000	          0.00000000	         -1.15102883	          0.00000000	
          1.57500000	         -0.00022631	         -0.00040238	          0.00010783	          0.00000124	          0.00000000	          0.00000047	         -6.86950866	        446.48712885	        -21.56702666	          0.60268888	          0.00000000	          0.08238748	          0.00000000	         -0.00000414	          0.00000000	          0.00000000	         -1.55588159	          0.00000000	
          1.58000000	         -0.00004062	          0.00004171	          0.00005707	          0.00000083	          0.00000000	          0.00000033	         -4.65236601	        453.39375762	        -21.52382125	          0.60282108	          0.00000000	          0.08221608	          0.00000000	         -0.00000183	          0.00000000	          0.00000000	         -1.97897572	          0.00000000	
          1.58500000	          0.00008167	          0.00032319	          0.00002001	          0.00000051	          0.00000000	          0.00000021	         -2.37267227	        460.57596259	        -21.50343624	          0.60293724	          0.00000000	          0.08205404	          0.00000000	         -0.00000020	          0.00000000	          0.00000000	         -2.41794561	          0.00000000	
          1.59000000	          0.00015363	          0.00047814	         -0.00000534	          0.00000026	          0.00000000	          0.00000012	         -0.04675424	        468.01447812	        -21.48722188	          0.60305317	          0.00000000	          0.08189774	          0.00000000	          0.00000086	          0.00000000	          0.00000000	         -2.87017978	          0.00000000	
          1.59500000	          0.00018763	          0.00053970	         -0.00002117	          0.00000007	          0.00000000	          0.00000005	          2.30697339	        475.68457582	        -21.45519886	          0.60318240	          0.00000000	          0.08174079	          0.00000000	          0.00000147	          0.00000000	          0.00000000	         -3.33229768	          0.00000000	
          1.60000000	          0.00019460	          0.00053648	         -0.00002965	         -0.00000005	          0.00000000	          0.00000000	          4.66865428	        483.56046116	        -21.38788766	          0.60333619	          0.00000000	          0.08157534	          0.00000000	          0.00000175	          0.00000000	          0.00000000	         -3.80028984	          0.00000000	
          1.60500000	          0.00018367	          0.00049200	         -0.00003274	         -0.00000012	          0.00000000	         -0.00000003	          7.01914654	        491.61656144	        -21.26759769	          0.60352292	          0.00000000	          0.08139464	          0.00000000	          0.00000179	          0.00000000	          0.00000000	         -4.27003396	          0.00000000	
          1.61000000	          0.00016214	          0.00042456	         -0.00003214	         -0.00000016	          0.00000000	         -0.00000004	          9.34198720	        499.82213477	        -21.07992676	          0.60374753	          0.00000000	          0.08119416	          0.00000000	          0.00000167	          0.00000000	          0.00000000	         -4.73811555	          0.00000000	
          1.61500000	          0.00013551	          0.00034773	         -0.00002921	         -0.00000017	          0.00000000	         -0.00000005	         11.62586566	        508.13466386	        -20.81518735	          0.60401241	          0.00000000	          0.08097095	          0.00000000	          0.00000146	          0.00000000	          0.00000000	         -5.20227906	          0.00000000	
          1.62000000	          0.00010771	          0.00027096	         -0.00002502	         -0.00000017	          0.00000000	         -0.00000005	         13.86625781	        516.49601646	        -20.46875397	          0.60431900	          0.00000000	          0.08072408	          0.00000000	          0.00000121	          0.00000000	          0.00000000	         -5.66151375	          0.00000000	
          1.62500000	          0.00008137	          0.00020030	         -0.00002035	         -0.00000015	          0.00000000	         -0.00000005	         16.06566443	        524.83302524	        -20.04165460	          0.60466412	          0.00000000	          0.08045622	          0.00000000	          0.00000096	          0.00000000	          0.00000000	         -6.11605912	          0.00000000	
